<svg width="494" height="90" viewBox="0 0 494 90" fill="none" xmlns="http://www.w3.org/2000/svg">
<circle cx="181.5" cy="76.5" r="13.5" fill="white"/>
<path d="M187 76.7631L178.75 81.5263V72L187 76.7631Z" fill="#00094A"/>
<path d="M8.714 12.55H3.506L2.428 15H0.986L5.424 5.2H6.81L11.262 15H9.792L8.714 12.55ZM8.224 11.43L6.11 6.628L3.996 11.43H8.224ZM16.4619 7.51C17.1806 7.51 17.8246 7.66867 18.3939 7.986C18.9632 8.30333 19.4066 8.74667 19.7239 9.316C20.0506 9.88533 20.2139 10.5433 20.2139 11.29C20.2139 12.0367 20.0506 12.6993 19.7239 13.278C19.4066 13.8473 18.9632 14.2907 18.3939 14.608C17.8246 14.9253 17.1806 15.084 16.4619 15.084C15.9112 15.084 15.4072 14.9767 14.9499 14.762C14.4926 14.5473 14.1146 14.2347 13.8159 13.824V15H12.5279V4.612H13.8719V8.7C14.1706 8.308 14.5439 8.014 14.9919 7.818C15.4399 7.61267 15.9299 7.51 16.4619 7.51ZM16.3499 13.908C16.8259 13.908 17.2506 13.8007 17.6239 13.586C18.0066 13.362 18.3052 13.054 18.5199 12.662C18.7439 12.2607 18.8559 11.8033 18.8559 11.29C18.8559 10.7767 18.7439 10.324 18.5199 9.932C18.3052 9.53067 18.0066 9.22267 17.6239 9.008C17.2506 8.79333 16.8259 8.686 16.3499 8.686C15.8832 8.686 15.4586 8.79333 15.0759 9.008C14.6932 9.22267 14.3946 9.53067 14.1799 9.932C13.9652 10.324 13.8579 10.7767 13.8579 11.29C13.8579 11.8033 13.9652 12.2607 14.1799 12.662C14.3946 13.054 14.6932 13.362 15.0759 13.586C15.4586 13.8007 15.8832 13.908 16.3499 13.908ZM28.9869 7.58V15H27.7129V13.88C27.4422 14.2627 27.0829 14.5613 26.6349 14.776C26.1962 14.9813 25.7155 15.084 25.1929 15.084C24.2035 15.084 23.4242 14.8133 22.8549 14.272C22.2855 13.7213 22.0009 12.914 22.0009 11.85V7.58H23.3449V11.696C23.3449 12.4147 23.5175 12.9607 23.8629 13.334C24.2082 13.698 24.7029 13.88 25.3469 13.88C26.0562 13.88 26.6162 13.6653 27.0269 13.236C27.4375 12.8067 27.6429 12.2 27.6429 11.416V7.58H28.9869ZM35.7175 14.566C35.5215 14.734 35.2788 14.8647 34.9895 14.958C34.7002 15.042 34.4015 15.084 34.0935 15.084C33.3468 15.084 32.7682 14.8833 32.3575 14.482C31.9468 14.0807 31.7415 13.5067 31.7415 12.76V8.686H30.4815V7.58H31.7415V5.956H33.0855V7.58H35.2135V8.686H33.0855V12.704C33.0855 13.1053 33.1835 13.4133 33.3795 13.628C33.5848 13.8427 33.8742 13.95 34.2475 13.95C34.6582 13.95 35.0082 13.8333 35.2975 13.6L35.7175 14.566ZM43.8023 11.332C43.8023 11.4347 43.7929 11.57 43.7743 11.738H37.7543C37.8383 12.3913 38.1229 12.9187 38.6083 13.32C39.1029 13.712 39.7143 13.908 40.4423 13.908C41.3289 13.908 42.0429 13.6093 42.5843 13.012L43.3263 13.88C42.9903 14.272 42.5703 14.5707 42.0663 14.776C41.5716 14.9813 41.0163 15.084 40.4003 15.084C39.6163 15.084 38.9209 14.9253 38.3143 14.608C37.7076 14.2813 37.2363 13.8287 36.9003 13.25C36.5736 12.6713 36.4103 12.018 36.4103 11.29C36.4103 10.5713 36.5689 9.92267 36.8863 9.344C37.2129 8.76533 37.6563 8.31733 38.2163 8C38.7856 7.67333 39.4249 7.51 40.1343 7.51C40.8436 7.51 41.4736 7.67333 42.0243 8C42.5843 8.31733 43.0183 8.76533 43.3263 9.344C43.6436 9.92267 43.8023 10.5853 43.8023 11.332ZM40.1343 8.644C39.4903 8.644 38.9489 8.84 38.5103 9.232C38.0809 9.624 37.8289 10.1373 37.7543 10.772H42.5143C42.4396 10.1467 42.1829 9.638 41.7443 9.246C41.3149 8.84467 40.7783 8.644 40.1343 8.644ZM48.9025 15.084C48.1465 15.084 47.4699 14.9207 46.8725 14.594C46.2845 14.2673 45.8225 13.8193 45.4865 13.25C45.1505 12.6713 44.9825 12.018 44.9825 11.29C44.9825 10.562 45.1505 9.91333 45.4865 9.344C45.8225 8.76533 46.2845 8.31733 46.8725 8C47.4699 7.67333 48.1465 7.51 48.9025 7.51C49.5745 7.51 50.1719 7.64533 50.6945 7.916C51.2265 8.18667 51.6372 8.57867 51.9265 9.092L50.9045 9.75C50.6712 9.39533 50.3819 9.12933 50.0365 8.952C49.6912 8.77467 49.3085 8.686 48.8885 8.686C48.4032 8.686 47.9645 8.79333 47.5725 9.008C47.1899 9.22267 46.8865 9.53067 46.6625 9.932C46.4479 10.324 46.3405 10.7767 46.3405 11.29C46.3405 11.8127 46.4479 12.2747 46.6625 12.676C46.8865 13.068 47.1899 13.3713 47.5725 13.586C47.9645 13.8007 48.4032 13.908 48.8885 13.908C49.3085 13.908 49.6912 13.8193 50.0365 13.642C50.3819 13.4647 50.6712 13.1987 50.9045 12.844L51.9265 13.488C51.6372 14.0013 51.2265 14.398 50.6945 14.678C50.1719 14.9487 49.5745 15.084 48.9025 15.084ZM57.5329 7.51C58.4755 7.51 59.2222 7.78533 59.7729 8.336C60.3329 8.87733 60.6129 9.67533 60.6129 10.73V15H59.2689V10.884C59.2689 10.1653 59.0962 9.624 58.7509 9.26C58.4055 8.896 57.9109 8.714 57.2669 8.714C56.5389 8.714 55.9649 8.92867 55.5449 9.358C55.1249 9.778 54.9149 10.3847 54.9149 11.178V15H53.5709V4.612H54.9149V8.63C55.1949 8.27533 55.5589 8 56.0069 7.804C56.4642 7.608 56.9729 7.51 57.5329 7.51ZM70.8219 7.51C71.7646 7.51 72.5113 7.78533 73.0619 8.336C73.6219 8.87733 73.9019 9.67533 73.9019 10.73V15H72.5579V10.884C72.5579 10.1653 72.3853 9.624 72.0399 9.26C71.6946 8.896 71.1999 8.714 70.5559 8.714C69.8279 8.714 69.2539 8.92867 68.8339 9.358C68.4139 9.778 68.2039 10.3847 68.2039 11.178V15H66.8599V4.612H68.2039V8.63C68.4839 8.27533 68.8479 8 69.2959 7.804C69.7533 7.608 70.2619 7.51 70.8219 7.51ZM79.0912 7.51C80.1179 7.51 80.9019 7.762 81.4432 8.266C81.9939 8.77 82.2692 9.52133 82.2692 10.52V15H80.9952V14.02C80.7712 14.3653 80.4492 14.6313 80.0292 14.818C79.6186 14.9953 79.1286 15.084 78.5592 15.084C77.7286 15.084 77.0612 14.8833 76.5572 14.482C76.0626 14.0807 75.8152 13.5533 75.8152 12.9C75.8152 12.2467 76.0532 11.724 76.5292 11.332C77.0052 10.9307 77.7612 10.73 78.7972 10.73H80.9252V10.464C80.9252 9.88533 80.7572 9.442 80.4212 9.134C80.0852 8.826 79.5906 8.672 78.9372 8.672C78.4986 8.672 78.0692 8.74667 77.6492 8.896C77.2292 9.036 76.8746 9.22733 76.5852 9.47L76.0252 8.462C76.4079 8.154 76.8652 7.92067 77.3972 7.762C77.9292 7.594 78.4939 7.51 79.0912 7.51ZM78.7832 14.048C79.2966 14.048 79.7399 13.936 80.1132 13.712C80.4866 13.4787 80.7572 13.152 80.9252 12.732V11.696H78.8532C77.7146 11.696 77.1452 12.0787 77.1452 12.844C77.1452 13.2173 77.2899 13.5113 77.5792 13.726C77.8686 13.9407 78.2699 14.048 78.7832 14.048ZM86.8844 15.084C86.2778 15.084 85.6944 15.0047 85.1344 14.846C84.5744 14.678 84.1358 14.468 83.8184 14.216L84.3784 13.152C84.7051 13.3853 85.1018 13.572 85.5684 13.712C86.0351 13.852 86.5064 13.922 86.9824 13.922C88.1584 13.922 88.7464 13.586 88.7464 12.914C88.7464 12.69 88.6671 12.5127 88.5084 12.382C88.3498 12.2513 88.1491 12.158 87.9064 12.102C87.6731 12.0367 87.3371 11.9667 86.8984 11.892C86.3011 11.7987 85.8111 11.6913 85.4284 11.57C85.0551 11.4487 84.7331 11.2433 84.4624 10.954C84.1918 10.6647 84.0564 10.2587 84.0564 9.736C84.0564 9.064 84.3364 8.52733 84.8964 8.126C85.4564 7.71533 86.2078 7.51 87.1504 7.51C87.6451 7.51 88.1398 7.57067 88.6344 7.692C89.1291 7.81333 89.5351 7.97667 89.8524 8.182L89.2784 9.246C88.6718 8.854 87.9578 8.658 87.1364 8.658C86.5671 8.658 86.1331 8.75133 85.8344 8.938C85.5358 9.12467 85.3864 9.372 85.3864 9.68C85.3864 9.92267 85.4704 10.114 85.6384 10.254C85.8064 10.394 86.0118 10.4967 86.2544 10.562C86.5064 10.6273 86.8564 10.702 87.3044 10.786C87.9018 10.8887 88.3824 11.0007 88.7464 11.122C89.1198 11.234 89.4371 11.43 89.6984 11.71C89.9598 11.99 90.0904 12.382 90.0904 12.886C90.0904 13.558 89.8011 14.0947 89.2224 14.496C88.6531 14.888 87.8738 15.084 86.8844 15.084ZM99.4639 7.51C100.183 7.51 100.827 7.66867 101.396 7.986C101.965 8.30333 102.409 8.74667 102.726 9.316C103.053 9.88533 103.216 10.5433 103.216 11.29C103.216 12.0367 103.053 12.6993 102.726 13.278C102.409 13.8473 101.965 14.2907 101.396 14.608C100.827 14.9253 100.183 15.084 99.4639 15.084C98.9132 15.084 98.4092 14.9767 97.9519 14.762C97.4945 14.5473 97.1165 14.2347 96.8179 13.824V15H95.5299V4.612H96.8739V8.7C97.1725 8.308 97.5459 8.014 97.9939 7.818C98.4419 7.61267 98.9319 7.51 99.4639 7.51ZM99.3519 13.908C99.8279 13.908 100.253 13.8007 100.626 13.586C101.009 13.362 101.307 13.054 101.522 12.662C101.746 12.2607 101.858 11.8033 101.858 11.29C101.858 10.7767 101.746 10.324 101.522 9.932C101.307 9.53067 101.009 9.22267 100.626 9.008C100.253 8.79333 99.8279 8.686 99.3519 8.686C98.8852 8.686 98.4605 8.79333 98.0779 9.008C97.6952 9.22267 97.3965 9.53067 97.1819 9.932C96.9672 10.324 96.8599 10.7767 96.8599 11.29C96.8599 11.8033 96.9672 12.2607 97.1819 12.662C97.3965 13.054 97.6952 13.362 98.0779 13.586C98.4605 13.8007 98.8852 13.908 99.3519 13.908ZM111.779 11.332C111.779 11.4347 111.769 11.57 111.751 11.738H105.731C105.815 12.3913 106.099 12.9187 106.585 13.32C107.079 13.712 107.691 13.908 108.419 13.908C109.305 13.908 110.019 13.6093 110.561 13.012L111.303 13.88C110.967 14.272 110.547 14.5707 110.043 14.776C109.548 14.9813 108.993 15.084 108.377 15.084C107.593 15.084 106.897 14.9253 106.291 14.608C105.684 14.2813 105.213 13.8287 104.877 13.25C104.55 12.6713 104.387 12.018 104.387 11.29C104.387 10.5713 104.545 9.92267 104.863 9.344C105.189 8.76533 105.633 8.31733 106.193 8C106.762 7.67333 107.401 7.51 108.111 7.51C108.82 7.51 109.45 7.67333 110.001 8C110.561 8.31733 110.995 8.76533 111.303 9.344C111.62 9.92267 111.779 10.5853 111.779 11.332ZM108.111 8.644C107.467 8.644 106.925 8.84 106.487 9.232C106.057 9.624 105.805 10.1373 105.731 10.772H110.491C110.416 10.1467 110.159 9.638 109.721 9.246C109.291 8.84467 108.755 8.644 108.111 8.644ZM120.351 11.332C120.351 11.4347 120.342 11.57 120.323 11.738H114.303C114.387 12.3913 114.672 12.9187 115.157 13.32C115.652 13.712 116.263 13.908 116.991 13.908C117.878 13.908 118.592 13.6093 119.133 13.012L119.875 13.88C119.539 14.272 119.119 14.5707 118.615 14.776C118.12 14.9813 117.565 15.084 116.949 15.084C116.165 15.084 115.47 14.9253 114.863 14.608C114.256 14.2813 113.785 13.8287 113.449 13.25C113.122 12.6713 112.959 12.018 112.959 11.29C112.959 10.5713 113.118 9.92267 113.435 9.344C113.762 8.76533 114.205 8.31733 114.765 8C115.334 7.67333 115.974 7.51 116.683 7.51C117.392 7.51 118.022 7.67333 118.573 8C119.133 8.31733 119.567 8.76533 119.875 9.344C120.192 9.92267 120.351 10.5853 120.351 11.332ZM116.683 8.644C116.039 8.644 115.498 8.84 115.059 9.232C114.63 9.624 114.378 10.1373 114.303 10.772H119.063C118.988 10.1467 118.732 9.638 118.293 9.246C117.864 8.84467 117.327 8.644 116.683 8.644ZM126.179 7.51C127.122 7.51 127.869 7.78533 128.419 8.336C128.979 8.87733 129.259 9.67533 129.259 10.73V15H127.915V10.884C127.915 10.1653 127.743 9.624 127.397 9.26C127.052 8.896 126.557 8.714 125.913 8.714C125.185 8.714 124.611 8.92867 124.191 9.358C123.771 9.778 123.561 10.3847 123.561 11.178V15H122.217V7.58H123.505V8.7C123.776 8.31733 124.14 8.02333 124.597 7.818C125.064 7.61267 125.591 7.51 126.179 7.51ZM142.212 11.332C142.212 11.4347 142.203 11.57 142.184 11.738H136.164C136.248 12.3913 136.533 12.9187 137.018 13.32C137.513 13.712 138.124 13.908 138.852 13.908C139.739 13.908 140.453 13.6093 140.994 13.012L141.736 13.88C141.4 14.272 140.98 14.5707 140.476 14.776C139.982 14.9813 139.426 15.084 138.81 15.084C138.026 15.084 137.331 14.9253 136.724 14.608C136.118 14.2813 135.646 13.8287 135.31 13.25C134.984 12.6713 134.82 12.018 134.82 11.29C134.82 10.5713 134.979 9.92267 135.296 9.344C135.623 8.76533 136.066 8.31733 136.626 8C137.196 7.67333 137.835 7.51 138.544 7.51C139.254 7.51 139.884 7.67333 140.434 8C140.994 8.31733 141.428 8.76533 141.736 9.344C142.054 9.92267 142.212 10.5853 142.212 11.332ZM138.544 8.644C137.9 8.644 137.359 8.84 136.92 9.232C136.491 9.624 136.239 10.1373 136.164 10.772H140.924C140.85 10.1467 140.593 9.638 140.154 9.246C139.725 8.84467 139.188 8.644 138.544 8.644ZM144.079 4.612H145.423V15H144.079V4.612ZM147.989 7.58H149.333V15H147.989V7.58ZM148.661 6.152C148.4 6.152 148.18 6.068 148.003 5.9C147.835 5.732 147.751 5.52667 147.751 5.284C147.751 5.04133 147.835 4.836 148.003 4.668C148.18 4.49067 148.4 4.402 148.661 4.402C148.922 4.402 149.137 4.486 149.305 4.654C149.482 4.81267 149.571 5.01333 149.571 5.256C149.571 5.508 149.482 5.72267 149.305 5.9C149.137 6.068 148.922 6.152 148.661 6.152ZM158.997 7.58V13.992C158.997 15.2893 158.675 16.246 158.031 16.862C157.387 17.4873 156.426 17.8 155.147 17.8C154.447 17.8 153.78 17.702 153.145 17.506C152.51 17.3193 151.997 17.0487 151.605 16.694L152.249 15.658C152.594 15.9567 153.019 16.19 153.523 16.358C154.036 16.5353 154.564 16.624 155.105 16.624C155.973 16.624 156.612 16.4187 157.023 16.008C157.443 15.5973 157.653 14.972 157.653 14.132V13.544C157.336 13.9267 156.944 14.216 156.477 14.412C156.02 14.5987 155.52 14.692 154.979 14.692C154.27 14.692 153.626 14.5427 153.047 14.244C152.478 13.936 152.03 13.5113 151.703 12.97C151.376 12.4193 151.213 11.794 151.213 11.094C151.213 10.394 151.376 9.77333 151.703 9.232C152.03 8.68133 152.478 8.25667 153.047 7.958C153.626 7.65933 154.27 7.51 154.979 7.51C155.539 7.51 156.057 7.61267 156.533 7.818C157.018 8.02333 157.415 8.32667 157.723 8.728V7.58H158.997ZM155.133 13.516C155.618 13.516 156.052 13.4133 156.435 13.208C156.827 13.0027 157.13 12.718 157.345 12.354C157.569 11.9807 157.681 11.5607 157.681 11.094C157.681 10.3753 157.443 9.79667 156.967 9.358C156.491 8.91 155.88 8.686 155.133 8.686C154.377 8.686 153.761 8.91 153.285 9.358C152.809 9.79667 152.571 10.3753 152.571 11.094C152.571 11.5607 152.678 11.9807 152.893 12.354C153.117 12.718 153.42 13.0027 153.803 13.208C154.195 13.4133 154.638 13.516 155.133 13.516ZM161.565 7.58H162.909V15H161.565V7.58ZM162.237 6.152C161.976 6.152 161.756 6.068 161.579 5.9C161.411 5.732 161.327 5.52667 161.327 5.284C161.327 5.04133 161.411 4.836 161.579 4.668C161.756 4.49067 161.976 4.402 162.237 4.402C162.498 4.402 162.713 4.486 162.881 4.654C163.058 4.81267 163.147 5.01333 163.147 5.256C163.147 5.508 163.058 5.72267 162.881 5.9C162.713 6.068 162.498 6.152 162.237 6.152ZM169.409 7.51C170.128 7.51 170.772 7.66867 171.341 7.986C171.911 8.30333 172.354 8.74667 172.671 9.316C172.998 9.88533 173.161 10.5433 173.161 11.29C173.161 12.0367 172.998 12.6993 172.671 13.278C172.354 13.8473 171.911 14.2907 171.341 14.608C170.772 14.9253 170.128 15.084 169.409 15.084C168.859 15.084 168.355 14.9767 167.897 14.762C167.44 14.5473 167.062 14.2347 166.763 13.824V15H165.475V4.612H166.819V8.7C167.118 8.308 167.491 8.014 167.939 7.818C168.387 7.61267 168.877 7.51 169.409 7.51ZM169.297 13.908C169.773 13.908 170.198 13.8007 170.571 13.586C170.954 13.362 171.253 13.054 171.467 12.662C171.691 12.2607 171.803 11.8033 171.803 11.29C171.803 10.7767 171.691 10.324 171.467 9.932C171.253 9.53067 170.954 9.22267 170.571 9.008C170.198 8.79333 169.773 8.686 169.297 8.686C168.831 8.686 168.406 8.79333 168.023 9.008C167.641 9.22267 167.342 9.53067 167.127 9.932C166.913 10.324 166.805 10.7767 166.805 11.29C166.805 11.8033 166.913 12.2607 167.127 12.662C167.342 13.054 167.641 13.362 168.023 13.586C168.406 13.8007 168.831 13.908 169.297 13.908ZM175.018 4.612H176.362V15H175.018V4.612ZM185.634 11.332C185.634 11.4347 185.625 11.57 185.606 11.738H179.586C179.67 12.3913 179.955 12.9187 180.44 13.32C180.935 13.712 181.546 13.908 182.274 13.908C183.161 13.908 183.875 13.6093 184.416 13.012L185.158 13.88C184.822 14.272 184.402 14.5707 183.898 14.776C183.404 14.9813 182.848 15.084 182.232 15.084C181.448 15.084 180.753 14.9253 180.146 14.608C179.54 14.2813 179.068 13.8287 178.732 13.25C178.406 12.6713 178.242 12.018 178.242 11.29C178.242 10.5713 178.401 9.92267 178.718 9.344C179.045 8.76533 179.488 8.31733 180.048 8C180.618 7.67333 181.257 7.51 181.966 7.51C182.676 7.51 183.306 7.67333 183.856 8C184.416 8.31733 184.85 8.76533 185.158 9.344C185.476 9.92267 185.634 10.5853 185.634 11.332ZM181.966 8.644C181.322 8.644 180.781 8.84 180.342 9.232C179.913 9.624 179.661 10.1373 179.586 10.772H184.346C184.272 10.1467 184.015 9.638 183.576 9.246C183.147 8.84467 182.61 8.644 181.966 8.644ZM195.432 14.566C195.236 14.734 194.994 14.8647 194.704 14.958C194.415 15.042 194.116 15.084 193.808 15.084C193.062 15.084 192.483 14.8833 192.072 14.482C191.662 14.0807 191.456 13.5067 191.456 12.76V8.686H190.196V7.58H191.456V5.956H192.8V7.58H194.928V8.686H192.8V12.704C192.8 13.1053 192.898 13.4133 193.094 13.628C193.3 13.8427 193.589 13.95 193.962 13.95C194.373 13.95 194.723 13.8333 195.012 13.6L195.432 14.566ZM199.989 15.084C199.252 15.084 198.589 14.9207 198.001 14.594C197.413 14.2673 196.951 13.8193 196.615 13.25C196.288 12.6713 196.125 12.018 196.125 11.29C196.125 10.562 196.288 9.91333 196.615 9.344C196.951 8.76533 197.413 8.31733 198.001 8C198.589 7.67333 199.252 7.51 199.989 7.51C200.726 7.51 201.384 7.67333 201.963 8C202.551 8.31733 203.008 8.76533 203.335 9.344C203.671 9.91333 203.839 10.562 203.839 11.29C203.839 12.018 203.671 12.6713 203.335 13.25C203.008 13.8193 202.551 14.2673 201.963 14.594C201.384 14.9207 200.726 15.084 199.989 15.084ZM199.989 13.908C200.465 13.908 200.89 13.8007 201.263 13.586C201.646 13.362 201.944 13.054 202.159 12.662C202.374 12.2607 202.481 11.8033 202.481 11.29C202.481 10.7767 202.374 10.324 202.159 9.932C201.944 9.53067 201.646 9.22267 201.263 9.008C200.89 8.79333 200.465 8.686 199.989 8.686C199.513 8.686 199.084 8.79333 198.701 9.008C198.328 9.22267 198.029 9.53067 197.805 9.932C197.59 10.324 197.483 10.7767 197.483 11.29C197.483 11.8033 197.59 12.2607 197.805 12.662C198.029 13.054 198.328 13.362 198.701 13.586C199.084 13.8007 199.513 13.908 199.989 13.908ZM213.392 7.51C214.11 7.51 214.754 7.66867 215.324 7.986C215.893 8.30333 216.336 8.74667 216.654 9.316C216.98 9.88533 217.144 10.5433 217.144 11.29C217.144 12.0367 216.98 12.6993 216.654 13.278C216.336 13.8473 215.893 14.2907 215.324 14.608C214.754 14.9253 214.11 15.084 213.392 15.084C212.86 15.084 212.37 14.9813 211.922 14.776C211.483 14.5707 211.11 14.272 210.802 13.88V17.716H209.458V7.58H210.746V8.756C211.044 8.34533 211.422 8.03733 211.88 7.832C212.337 7.61733 212.841 7.51 213.392 7.51ZM213.28 13.908C213.756 13.908 214.18 13.8007 214.554 13.586C214.936 13.362 215.235 13.054 215.45 12.662C215.674 12.2607 215.786 11.8033 215.786 11.29C215.786 10.7767 215.674 10.324 215.45 9.932C215.235 9.53067 214.936 9.22267 214.554 9.008C214.18 8.79333 213.756 8.686 213.28 8.686C212.813 8.686 212.388 8.798 212.006 9.022C211.632 9.23667 211.334 9.54 211.11 9.932C210.895 10.324 210.788 10.7767 210.788 11.29C210.788 11.8033 210.895 12.2607 211.11 12.662C211.324 13.054 211.623 13.362 212.006 13.586C212.388 13.8007 212.813 13.908 213.28 13.908ZM220.289 8.826C220.522 8.39667 220.867 8.07 221.325 7.846C221.782 7.622 222.337 7.51 222.991 7.51V8.812C222.916 8.80267 222.813 8.798 222.683 8.798C221.955 8.798 221.381 9.01733 220.961 9.456C220.55 9.88533 220.345 10.5013 220.345 11.304V15H219.001V7.58H220.289V8.826ZM227.757 15.084C227.019 15.084 226.357 14.9207 225.769 14.594C225.181 14.2673 224.719 13.8193 224.383 13.25C224.056 12.6713 223.893 12.018 223.893 11.29C223.893 10.562 224.056 9.91333 224.383 9.344C224.719 8.76533 225.181 8.31733 225.769 8C226.357 7.67333 227.019 7.51 227.757 7.51C228.494 7.51 229.152 7.67333 229.731 8C230.319 8.31733 230.776 8.76533 231.103 9.344C231.439 9.91333 231.607 10.562 231.607 11.29C231.607 12.018 231.439 12.6713 231.103 13.25C230.776 13.8193 230.319 14.2673 229.731 14.594C229.152 14.9207 228.494 15.084 227.757 15.084ZM227.757 13.908C228.233 13.908 228.657 13.8007 229.031 13.586C229.413 13.362 229.712 13.054 229.927 12.662C230.141 12.2607 230.249 11.8033 230.249 11.29C230.249 10.7767 230.141 10.324 229.927 9.932C229.712 9.53067 229.413 9.22267 229.031 9.008C228.657 8.79333 228.233 8.686 227.757 8.686C227.281 8.686 226.851 8.79333 226.469 9.008C226.095 9.22267 225.797 9.53067 225.573 9.932C225.358 10.324 225.251 10.7767 225.251 11.29C225.251 11.8033 225.358 12.2607 225.573 12.662C225.797 13.054 226.095 13.362 226.469 13.586C226.851 13.8007 227.281 13.908 227.757 13.908ZM239.826 7.58L236.578 15H235.206L231.958 7.58H233.358L235.906 13.53L238.51 7.58H239.826ZM241.081 7.58H242.425V15H241.081V7.58ZM241.753 6.152C241.491 6.152 241.272 6.068 241.095 5.9C240.927 5.732 240.843 5.52667 240.843 5.284C240.843 5.04133 240.927 4.836 241.095 4.668C241.272 4.49067 241.491 4.402 241.753 4.402C242.014 4.402 242.229 4.486 242.397 4.654C242.574 4.81267 242.663 5.01333 242.663 5.256C242.663 5.508 242.574 5.72267 242.397 5.9C242.229 6.068 242.014 6.152 241.753 6.152ZM251.991 4.612V15H250.703V13.824C250.404 14.2347 250.026 14.5473 249.569 14.762C249.111 14.9767 248.607 15.084 248.057 15.084C247.338 15.084 246.694 14.9253 246.125 14.608C245.555 14.2907 245.107 13.8473 244.781 13.278C244.463 12.6993 244.305 12.0367 244.305 11.29C244.305 10.5433 244.463 9.88533 244.781 9.316C245.107 8.74667 245.555 8.30333 246.125 7.986C246.694 7.66867 247.338 7.51 248.057 7.51C248.589 7.51 249.079 7.61267 249.527 7.818C249.975 8.014 250.348 8.308 250.647 8.7V4.612H251.991ZM248.169 13.908C248.635 13.908 249.06 13.8007 249.443 13.586C249.825 13.362 250.124 13.054 250.339 12.662C250.553 12.2607 250.661 11.8033 250.661 11.29C250.661 10.7767 250.553 10.324 250.339 9.932C250.124 9.53067 249.825 9.22267 249.443 9.008C249.06 8.79333 248.635 8.686 248.169 8.686C247.693 8.686 247.263 8.79333 246.881 9.008C246.507 9.22267 246.209 9.53067 245.985 9.932C245.77 10.324 245.663 10.7767 245.663 11.29C245.663 11.8033 245.77 12.2607 245.985 12.662C246.209 13.054 246.507 13.362 246.881 13.586C247.263 13.8007 247.693 13.908 248.169 13.908ZM261.24 11.332C261.24 11.4347 261.23 11.57 261.212 11.738H255.192C255.276 12.3913 255.56 12.9187 256.046 13.32C256.54 13.712 257.152 13.908 257.88 13.908C258.766 13.908 259.48 13.6093 260.022 13.012L260.764 13.88C260.428 14.272 260.008 14.5707 259.504 14.776C259.009 14.9813 258.454 15.084 257.838 15.084C257.054 15.084 256.358 14.9253 255.752 14.608C255.145 14.2813 254.674 13.8287 254.338 13.25C254.011 12.6713 253.848 12.018 253.848 11.29C253.848 10.5713 254.006 9.92267 254.324 9.344C254.65 8.76533 255.094 8.31733 255.654 8C256.223 7.67333 256.862 7.51 257.572 7.51C258.281 7.51 258.911 7.67333 259.462 8C260.022 8.31733 260.456 8.76533 260.764 9.344C261.081 9.92267 261.24 10.5853 261.24 11.332ZM257.572 8.644C256.928 8.644 256.386 8.84 255.948 9.232C255.518 9.624 255.266 10.1373 255.192 10.772H259.952C259.877 10.1467 259.62 9.638 259.182 9.246C258.752 8.84467 258.216 8.644 257.572 8.644ZM271.038 14.566C270.842 14.734 270.599 14.8647 270.31 14.958C270.02 15.042 269.722 15.084 269.414 15.084C268.667 15.084 268.088 14.8833 267.678 14.482C267.267 14.0807 267.062 13.5067 267.062 12.76V8.686H265.802V7.58H267.062V5.956H268.406V7.58H270.534V8.686H268.406V12.704C268.406 13.1053 268.504 13.4133 268.7 13.628C268.905 13.8427 269.194 13.95 269.568 13.95C269.978 13.95 270.328 13.8333 270.618 13.6L271.038 14.566ZM276.625 7.51C277.567 7.51 278.314 7.78533 278.865 8.336C279.425 8.87733 279.705 9.67533 279.705 10.73V15H278.361V10.884C278.361 10.1653 278.188 9.624 277.843 9.26C277.497 8.896 277.003 8.714 276.359 8.714C275.631 8.714 275.057 8.92867 274.637 9.358C274.217 9.778 274.007 10.3847 274.007 11.178V15H272.663V4.612H274.007V8.63C274.287 8.27533 274.651 8 275.099 7.804C275.556 7.608 276.065 7.51 276.625 7.51ZM288.939 11.332C288.939 11.4347 288.93 11.57 288.911 11.738H282.891C282.975 12.3913 283.26 12.9187 283.745 13.32C284.24 13.712 284.851 13.908 285.579 13.908C286.466 13.908 287.18 13.6093 287.721 13.012L288.463 13.88C288.127 14.272 287.707 14.5707 287.203 14.776C286.708 14.9813 286.153 15.084 285.537 15.084C284.753 15.084 284.058 14.9253 283.451 14.608C282.844 14.2813 282.373 13.8287 282.037 13.25C281.71 12.6713 281.547 12.018 281.547 11.29C281.547 10.5713 281.706 9.92267 282.023 9.344C282.35 8.76533 282.793 8.31733 283.353 8C283.922 7.67333 284.562 7.51 285.271 7.51C285.98 7.51 286.61 7.67333 287.161 8C287.721 8.31733 288.155 8.76533 288.463 9.344C288.78 9.92267 288.939 10.5853 288.939 11.332ZM285.271 8.644C284.627 8.644 284.086 8.84 283.647 9.232C283.218 9.624 282.966 10.1373 282.891 10.772H287.651C287.576 10.1467 287.32 9.638 286.881 9.246C286.452 8.84467 285.915 8.644 285.271 8.644ZM298.499 7.51C299.218 7.51 299.862 7.66867 300.431 7.986C301 8.30333 301.444 8.74667 301.761 9.316C302.088 9.88533 302.251 10.5433 302.251 11.29C302.251 12.0367 302.088 12.6993 301.761 13.278C301.444 13.8473 301 14.2907 300.431 14.608C299.862 14.9253 299.218 15.084 298.499 15.084C297.948 15.084 297.444 14.9767 296.987 14.762C296.53 14.5473 296.152 14.2347 295.853 13.824V15H294.565V4.612H295.909V8.7C296.208 8.308 296.581 8.014 297.029 7.818C297.477 7.61267 297.967 7.51 298.499 7.51ZM298.387 13.908C298.863 13.908 299.288 13.8007 299.661 13.586C300.044 13.362 300.342 13.054 300.557 12.662C300.781 12.2607 300.893 11.8033 300.893 11.29C300.893 10.7767 300.781 10.324 300.557 9.932C300.342 9.53067 300.044 9.22267 299.661 9.008C299.288 8.79333 298.863 8.686 298.387 8.686C297.92 8.686 297.496 8.79333 297.113 9.008C296.73 9.22267 296.432 9.53067 296.217 9.932C296.002 10.324 295.895 10.7767 295.895 11.29C295.895 11.8033 296.002 12.2607 296.217 12.662C296.432 13.054 296.73 13.362 297.113 13.586C297.496 13.8007 297.92 13.908 298.387 13.908ZM310.814 11.332C310.814 11.4347 310.805 11.57 310.786 11.738H304.766C304.85 12.3913 305.135 12.9187 305.62 13.32C306.115 13.712 306.726 13.908 307.454 13.908C308.341 13.908 309.055 13.6093 309.596 13.012L310.338 13.88C310.002 14.272 309.582 14.5707 309.078 14.776C308.583 14.9813 308.028 15.084 307.412 15.084C306.628 15.084 305.933 14.9253 305.326 14.608C304.719 14.2813 304.248 13.8287 303.912 13.25C303.585 12.6713 303.422 12.018 303.422 11.29C303.422 10.5713 303.581 9.92267 303.898 9.344C304.225 8.76533 304.668 8.31733 305.228 8C305.797 7.67333 306.437 7.51 307.146 7.51C307.855 7.51 308.485 7.67333 309.036 8C309.596 8.31733 310.03 8.76533 310.338 9.344C310.655 9.92267 310.814 10.5853 310.814 11.332ZM307.146 8.644C306.502 8.644 305.961 8.84 305.522 9.232C305.093 9.624 304.841 10.1373 304.766 10.772H309.526C309.451 10.1467 309.195 9.638 308.756 9.246C308.327 8.84467 307.79 8.644 307.146 8.644ZM314.808 15.084C314.202 15.084 313.618 15.0047 313.058 14.846C312.498 14.678 312.06 14.468 311.742 14.216L312.302 13.152C312.629 13.3853 313.026 13.572 313.492 13.712C313.959 13.852 314.43 13.922 314.906 13.922C316.082 13.922 316.67 13.586 316.67 12.914C316.67 12.69 316.591 12.5127 316.432 12.382C316.274 12.2513 316.073 12.158 315.83 12.102C315.597 12.0367 315.261 11.9667 314.822 11.892C314.225 11.7987 313.735 11.6913 313.352 11.57C312.979 11.4487 312.657 11.2433 312.386 10.954C312.116 10.6647 311.98 10.2587 311.98 9.736C311.98 9.064 312.26 8.52733 312.82 8.126C313.38 7.71533 314.132 7.51 315.074 7.51C315.569 7.51 316.064 7.57067 316.558 7.692C317.053 7.81333 317.459 7.97667 317.776 8.182L317.202 9.246C316.596 8.854 315.882 8.658 315.06 8.658C314.491 8.658 314.057 8.75133 313.758 8.938C313.46 9.12467 313.31 9.372 313.31 9.68C313.31 9.92267 313.394 10.114 313.562 10.254C313.73 10.394 313.936 10.4967 314.178 10.562C314.43 10.6273 314.78 10.702 315.228 10.786C315.826 10.8887 316.306 11.0007 316.67 11.122C317.044 11.234 317.361 11.43 317.622 11.71C317.884 11.99 318.014 12.382 318.014 12.886C318.014 13.558 317.725 14.0947 317.146 14.496C316.577 14.888 315.798 15.084 314.808 15.084ZM323.866 14.566C323.67 14.734 323.427 14.8647 323.138 14.958C322.849 15.042 322.55 15.084 322.242 15.084C321.495 15.084 320.917 14.8833 320.506 14.482C320.095 14.0807 319.89 13.5067 319.89 12.76V8.686H318.63V7.58H319.89V5.956H321.234V7.58H323.362V8.686H321.234V12.704C321.234 13.1053 321.332 13.4133 321.528 13.628C321.733 13.8427 322.023 13.95 322.396 13.95C322.807 13.95 323.157 13.8333 323.446 13.6L323.866 14.566ZM332.429 15.084C331.691 15.084 331.029 14.9207 330.441 14.594C329.853 14.2673 329.391 13.8193 329.055 13.25C328.728 12.6713 328.565 12.018 328.565 11.29C328.565 10.562 328.728 9.91333 329.055 9.344C329.391 8.76533 329.853 8.31733 330.441 8C331.029 7.67333 331.691 7.51 332.429 7.51C333.166 7.51 333.824 7.67333 334.403 8C334.991 8.31733 335.448 8.76533 335.775 9.344C336.111 9.91333 336.279 10.562 336.279 11.29C336.279 12.018 336.111 12.6713 335.775 13.25C335.448 13.8193 334.991 14.2673 334.403 14.594C333.824 14.9207 333.166 15.084 332.429 15.084ZM332.429 13.908C332.905 13.908 333.329 13.8007 333.703 13.586C334.085 13.362 334.384 13.054 334.599 12.662C334.813 12.2607 334.921 11.8033 334.921 11.29C334.921 10.7767 334.813 10.324 334.599 9.932C334.384 9.53067 334.085 9.22267 333.703 9.008C333.329 8.79333 332.905 8.686 332.429 8.686C331.953 8.686 331.523 8.79333 331.141 9.008C330.767 9.22267 330.469 9.53067 330.245 9.932C330.03 10.324 329.923 10.7767 329.923 11.29C329.923 11.8033 330.03 12.2607 330.245 12.662C330.469 13.054 330.767 13.362 331.141 13.586C331.523 13.8007 331.953 13.908 332.429 13.908ZM340.853 5.634C340.051 5.634 339.649 6.068 339.649 6.936V7.58H341.805V8.686H339.677V15H338.333V8.686H337.073V7.58H338.333V6.922C338.333 6.18467 338.548 5.60133 338.977 5.172C339.407 4.74267 340.009 4.528 340.783 4.528C341.082 4.528 341.362 4.56533 341.623 4.64C341.885 4.71467 342.109 4.822 342.295 4.962L341.889 5.984C341.581 5.75067 341.236 5.634 340.853 5.634ZM348.961 15.084C348.354 15.084 347.771 15.0047 347.211 14.846C346.651 14.678 346.212 14.468 345.895 14.216L346.455 13.152C346.781 13.3853 347.178 13.572 347.645 13.712C348.111 13.852 348.583 13.922 349.059 13.922C350.235 13.922 350.823 13.586 350.823 12.914C350.823 12.69 350.743 12.5127 350.585 12.382C350.426 12.2513 350.225 12.158 349.983 12.102C349.749 12.0367 349.413 11.9667 348.975 11.892C348.377 11.7987 347.887 11.6913 347.505 11.57C347.131 11.4487 346.809 11.2433 346.539 10.954C346.268 10.6647 346.133 10.2587 346.133 9.736C346.133 9.064 346.413 8.52733 346.973 8.126C347.533 7.71533 348.284 7.51 349.227 7.51C349.721 7.51 350.216 7.57067 350.711 7.692C351.205 7.81333 351.611 7.97667 351.929 8.182L351.355 9.246C350.748 8.854 350.034 8.658 349.213 8.658C348.643 8.658 348.209 8.75133 347.911 8.938C347.612 9.12467 347.463 9.372 347.463 9.68C347.463 9.92267 347.547 10.114 347.715 10.254C347.883 10.394 348.088 10.4967 348.331 10.562C348.583 10.6273 348.933 10.702 349.381 10.786C349.978 10.8887 350.459 11.0007 350.823 11.122C351.196 11.234 351.513 11.43 351.775 11.71C352.036 11.99 352.167 12.382 352.167 12.886C352.167 13.558 351.877 14.0947 351.299 14.496C350.729 14.888 349.95 15.084 348.961 15.084ZM360.552 11.332C360.552 11.4347 360.543 11.57 360.524 11.738H354.504C354.588 12.3913 354.873 12.9187 355.358 13.32C355.853 13.712 356.464 13.908 357.192 13.908C358.079 13.908 358.793 13.6093 359.334 13.012L360.076 13.88C359.74 14.272 359.32 14.5707 358.816 14.776C358.322 14.9813 357.766 15.084 357.15 15.084C356.366 15.084 355.671 14.9253 355.064 14.608C354.458 14.2813 353.986 13.8287 353.65 13.25C353.324 12.6713 353.16 12.018 353.16 11.29C353.16 10.5713 353.319 9.92267 353.636 9.344C353.963 8.76533 354.406 8.31733 354.966 8C355.536 7.67333 356.175 7.51 356.884 7.51C357.594 7.51 358.224 7.67333 358.774 8C359.334 8.31733 359.768 8.76533 360.076 9.344C360.394 9.92267 360.552 10.5853 360.552 11.332ZM356.884 8.644C356.24 8.644 355.699 8.84 355.26 9.232C354.831 9.624 354.579 10.1373 354.504 10.772H359.264C359.19 10.1467 358.933 9.638 358.494 9.246C358.065 8.84467 357.528 8.644 356.884 8.644ZM363.707 8.826C363.94 8.39667 364.285 8.07 364.743 7.846C365.2 7.622 365.755 7.51 366.409 7.51V8.812C366.334 8.80267 366.231 8.798 366.101 8.798C365.373 8.798 364.799 9.01733 364.379 9.456C363.968 9.88533 363.763 10.5013 363.763 11.304V15H362.419V7.58H363.707V8.826ZM374.932 7.58L371.684 15H370.312L367.064 7.58H368.464L371.012 13.53L373.616 7.58H374.932ZM376.186 7.58H377.53V15H376.186V7.58ZM376.858 6.152C376.597 6.152 376.377 6.068 376.2 5.9C376.032 5.732 375.948 5.52667 375.948 5.284C375.948 5.04133 376.032 4.836 376.2 4.668C376.377 4.49067 376.597 4.402 376.858 4.402C377.119 4.402 377.334 4.486 377.502 4.654C377.679 4.81267 377.768 5.01333 377.768 5.256C377.768 5.508 377.679 5.72267 377.502 5.9C377.334 6.068 377.119 6.152 376.858 6.152ZM383.33 15.084C382.574 15.084 381.898 14.9207 381.3 14.594C380.712 14.2673 380.25 13.8193 379.914 13.25C379.578 12.6713 379.41 12.018 379.41 11.29C379.41 10.562 379.578 9.91333 379.914 9.344C380.25 8.76533 380.712 8.31733 381.3 8C381.898 7.67333 382.574 7.51 383.33 7.51C384.002 7.51 384.6 7.64533 385.122 7.916C385.654 8.18667 386.065 8.57867 386.354 9.092L385.332 9.75C385.099 9.39533 384.81 9.12933 384.464 8.952C384.119 8.77467 383.736 8.686 383.316 8.686C382.831 8.686 382.392 8.79333 382 9.008C381.618 9.22267 381.314 9.53067 381.09 9.932C380.876 10.324 380.768 10.7767 380.768 11.29C380.768 11.8127 380.876 12.2747 381.09 12.676C381.314 13.068 381.618 13.3713 382 13.586C382.392 13.8007 382.831 13.908 383.316 13.908C383.736 13.908 384.119 13.8193 384.464 13.642C384.81 13.4647 385.099 13.1987 385.332 12.844L386.354 13.488C386.065 14.0013 385.654 14.398 385.122 14.678C384.6 14.9487 384.002 15.084 383.33 15.084ZM394.691 11.332C394.691 11.4347 394.682 11.57 394.663 11.738H388.643C388.727 12.3913 389.012 12.9187 389.497 13.32C389.992 13.712 390.603 13.908 391.331 13.908C392.218 13.908 392.932 13.6093 393.473 13.012L394.215 13.88C393.879 14.272 393.459 14.5707 392.955 14.776C392.46 14.9813 391.905 15.084 391.289 15.084C390.505 15.084 389.81 14.9253 389.203 14.608C388.596 14.2813 388.125 13.8287 387.789 13.25C387.462 12.6713 387.299 12.018 387.299 11.29C387.299 10.5713 387.458 9.92267 387.775 9.344C388.102 8.76533 388.545 8.31733 389.105 8C389.674 7.67333 390.314 7.51 391.023 7.51C391.732 7.51 392.362 7.67333 392.913 8C393.473 8.31733 393.907 8.76533 394.215 9.344C394.532 9.92267 394.691 10.5853 394.691 11.332ZM391.023 8.644C390.379 8.644 389.838 8.84 389.399 9.232C388.97 9.624 388.718 10.1373 388.643 10.772H393.403C393.328 10.1467 393.072 9.638 392.633 9.246C392.204 8.84467 391.667 8.644 391.023 8.644ZM398.685 15.084C398.079 15.084 397.495 15.0047 396.935 14.846C396.375 14.678 395.937 14.468 395.619 14.216L396.179 13.152C396.506 13.3853 396.903 13.572 397.369 13.712C397.836 13.852 398.307 13.922 398.783 13.922C399.959 13.922 400.547 13.586 400.547 12.914C400.547 12.69 400.468 12.5127 400.309 12.382C400.151 12.2513 399.95 12.158 399.707 12.102C399.474 12.0367 399.138 11.9667 398.699 11.892C398.102 11.7987 397.612 11.6913 397.229 11.57C396.856 11.4487 396.534 11.2433 396.263 10.954C395.993 10.6647 395.857 10.2587 395.857 9.736C395.857 9.064 396.137 8.52733 396.697 8.126C397.257 7.71533 398.009 7.51 398.951 7.51C399.446 7.51 399.941 7.57067 400.435 7.692C400.93 7.81333 401.336 7.97667 401.653 8.182L401.079 9.246C400.473 8.854 399.759 8.658 398.937 8.658C398.368 8.658 397.934 8.75133 397.635 8.938C397.337 9.12467 397.187 9.372 397.187 9.68C397.187 9.92267 397.271 10.114 397.439 10.254C397.607 10.394 397.813 10.4967 398.055 10.562C398.307 10.6273 398.657 10.702 399.105 10.786C399.703 10.8887 400.183 11.0007 400.547 11.122C400.921 11.234 401.238 11.43 401.499 11.71C401.761 11.99 401.891 12.382 401.891 12.886C401.891 13.558 401.602 14.0947 401.023 14.496C400.454 14.888 399.675 15.084 398.685 15.084ZM411.503 14.566C411.307 14.734 411.064 14.8647 410.775 14.958C410.485 15.042 410.187 15.084 409.879 15.084C409.132 15.084 408.553 14.8833 408.143 14.482C407.732 14.0807 407.527 13.5067 407.527 12.76V8.686H406.267V7.58H407.527V5.956H408.871V7.58H410.999V8.686H408.871V12.704C408.871 13.1053 408.969 13.4133 409.165 13.628C409.37 13.8427 409.659 13.95 410.033 13.95C410.443 13.95 410.793 13.8333 411.083 13.6L411.503 14.566ZM416.059 15.084C415.322 15.084 414.659 14.9207 414.071 14.594C413.483 14.2673 413.021 13.8193 412.685 13.25C412.359 12.6713 412.195 12.018 412.195 11.29C412.195 10.562 412.359 9.91333 412.685 9.344C413.021 8.76533 413.483 8.31733 414.071 8C414.659 7.67333 415.322 7.51 416.059 7.51C416.797 7.51 417.455 7.67333 418.033 8C418.621 8.31733 419.079 8.76533 419.405 9.344C419.741 9.91333 419.909 10.562 419.909 11.29C419.909 12.018 419.741 12.6713 419.405 13.25C419.079 13.8193 418.621 14.2673 418.033 14.594C417.455 14.9207 416.797 15.084 416.059 15.084ZM416.059 13.908C416.535 13.908 416.96 13.8007 417.333 13.586C417.716 13.362 418.015 13.054 418.229 12.662C418.444 12.2607 418.551 11.8033 418.551 11.29C418.551 10.7767 418.444 10.324 418.229 9.932C418.015 9.53067 417.716 9.22267 417.333 9.008C416.96 8.79333 416.535 8.686 416.059 8.686C415.583 8.686 415.154 8.79333 414.771 9.008C414.398 9.22267 414.099 9.53067 413.875 9.932C413.661 10.324 413.553 10.7767 413.553 11.29C413.553 11.8033 413.661 12.2607 413.875 12.662C414.099 13.054 414.398 13.362 414.771 13.586C415.154 13.8007 415.583 13.908 416.059 13.908ZM428.706 15.084C427.969 15.084 427.306 14.9207 426.718 14.594C426.13 14.2673 425.668 13.8193 425.332 13.25C425.005 12.6713 424.842 12.018 424.842 11.29C424.842 10.562 425.005 9.91333 425.332 9.344C425.668 8.76533 426.13 8.31733 426.718 8C427.306 7.67333 427.969 7.51 428.706 7.51C429.443 7.51 430.101 7.67333 430.68 8C431.268 8.31733 431.725 8.76533 432.052 9.344C432.388 9.91333 432.556 10.562 432.556 11.29C432.556 12.018 432.388 12.6713 432.052 13.25C431.725 13.8193 431.268 14.2673 430.68 14.594C430.101 14.9207 429.443 15.084 428.706 15.084ZM428.706 13.908C429.182 13.908 429.607 13.8007 429.98 13.586C430.363 13.362 430.661 13.054 430.876 12.662C431.091 12.2607 431.198 11.8033 431.198 11.29C431.198 10.7767 431.091 10.324 430.876 9.932C430.661 9.53067 430.363 9.22267 429.98 9.008C429.607 8.79333 429.182 8.686 428.706 8.686C428.23 8.686 427.801 8.79333 427.418 9.008C427.045 9.22267 426.746 9.53067 426.522 9.932C426.307 10.324 426.2 10.7767 426.2 11.29C426.2 11.8033 426.307 12.2607 426.522 12.662C426.746 13.054 427.045 13.362 427.418 13.586C427.801 13.8007 428.23 13.908 428.706 13.908ZM441.331 7.58V15H440.057V13.88C439.786 14.2627 439.427 14.5613 438.979 14.776C438.54 14.9813 438.059 15.084 437.537 15.084C436.547 15.084 435.768 14.8133 435.199 14.272C434.629 13.7213 434.345 12.914 434.345 11.85V7.58H435.689V11.696C435.689 12.4147 435.861 12.9607 436.207 13.334C436.552 13.698 437.047 13.88 437.691 13.88C438.4 13.88 438.96 13.6653 439.371 13.236C439.781 12.8067 439.987 12.2 439.987 11.416V7.58H441.331ZM445.177 8.826C445.411 8.39667 445.756 8.07 446.213 7.846C446.671 7.622 447.226 7.51 447.879 7.51V8.812C447.805 8.80267 447.702 8.798 447.571 8.798C446.843 8.798 446.269 9.01733 445.849 9.456C445.439 9.88533 445.233 10.5013 445.233 11.304V15H443.889V7.58H445.177V8.826ZM5.508 35.084C4.752 35.084 4.07533 34.9207 3.478 34.594C2.89 34.2673 2.428 33.8193 2.092 33.25C1.756 32.6713 1.588 32.018 1.588 31.29C1.588 30.562 1.756 29.9133 2.092 29.344C2.428 28.7653 2.89 28.3173 3.478 28C4.07533 27.6733 4.752 27.51 5.508 27.51C6.18 27.51 6.77733 27.6453 7.3 27.916C7.832 28.1867 8.24267 28.5787 8.532 29.092L7.51 29.75C7.27667 29.3953 6.98733 29.1293 6.642 28.952C6.29667 28.7747 5.914 28.686 5.494 28.686C5.00867 28.686 4.57 28.7933 4.178 29.008C3.79533 29.2227 3.492 29.5307 3.268 29.932C3.05333 30.324 2.946 30.7767 2.946 31.29C2.946 31.8127 3.05333 32.2747 3.268 32.676C3.492 33.068 3.79533 33.3713 4.178 33.586C4.57 33.8007 5.00867 33.908 5.494 33.908C5.914 33.908 6.29667 33.8193 6.642 33.642C6.98733 33.4647 7.27667 33.1987 7.51 32.844L8.532 33.488C8.24267 34.0013 7.832 34.398 7.3 34.678C6.77733 34.9487 6.18 35.084 5.508 35.084ZM10.1763 24.612H11.5203V35H10.1763V24.612ZM14.0865 27.58H15.4305V35H14.0865V27.58ZM14.7585 26.152C14.4972 26.152 14.2778 26.068 14.1005 25.9C13.9325 25.732 13.8485 25.5267 13.8485 25.284C13.8485 25.0413 13.9325 24.836 14.1005 24.668C14.2778 24.4907 14.4972 24.402 14.7585 24.402C15.0198 24.402 15.2345 24.486 15.4025 24.654C15.5798 24.8127 15.6685 25.0133 15.6685 25.256C15.6685 25.508 15.5798 25.7227 15.4025 25.9C15.2345 26.068 15.0198 26.152 14.7585 26.152ZM24.7027 31.332C24.7027 31.4347 24.6933 31.57 24.6747 31.738H18.6547C18.7387 32.3913 19.0233 32.9187 19.5087 33.32C20.0033 33.712 20.6147 33.908 21.3427 33.908C22.2293 33.908 22.9433 33.6093 23.4847 33.012L24.2267 33.88C23.8907 34.272 23.4707 34.5707 22.9667 34.776C22.472 34.9813 21.9167 35.084 21.3007 35.084C20.5167 35.084 19.8213 34.9253 19.2147 34.608C18.608 34.2813 18.1367 33.8287 17.8007 33.25C17.474 32.6713 17.3107 32.018 17.3107 31.29C17.3107 30.5713 17.4693 29.9227 17.7867 29.344C18.1133 28.7653 18.5567 28.3173 19.1167 28C19.686 27.6733 20.3253 27.51 21.0347 27.51C21.744 27.51 22.374 27.6733 22.9247 28C23.4847 28.3173 23.9187 28.7653 24.2267 29.344C24.544 29.9227 24.7027 30.5853 24.7027 31.332ZM21.0347 28.644C20.3907 28.644 19.8493 28.84 19.4107 29.232C18.9813 29.624 18.7293 30.1373 18.6547 30.772H23.4147C23.34 30.1467 23.0833 29.638 22.6447 29.246C22.2153 28.8447 21.6787 28.644 21.0347 28.644ZM30.5309 27.51C31.4736 27.51 32.2203 27.7853 32.7709 28.336C33.3309 28.8773 33.6109 29.6753 33.6109 30.73V35H32.2669V30.884C32.2669 30.1653 32.0943 29.624 31.7489 29.26C31.4036 28.896 30.9089 28.714 30.2649 28.714C29.5369 28.714 28.9629 28.9287 28.5429 29.358C28.1229 29.778 27.9129 30.3847 27.9129 31.178V35H26.5689V27.58H27.8569V28.7C28.1276 28.3173 28.4916 28.0233 28.9489 27.818C29.4156 27.6127 29.9429 27.51 30.5309 27.51ZM40.2702 34.566C40.0742 34.734 39.8316 34.8647 39.5422 34.958C39.2529 35.042 38.9542 35.084 38.6462 35.084C37.8996 35.084 37.3209 34.8833 36.9102 34.482C36.4996 34.0807 36.2942 33.5067 36.2942 32.76V28.686H35.0342V27.58H36.2942V25.956H37.6382V27.58H39.7662V28.686H37.6382V32.704C37.6382 33.1053 37.7362 33.4133 37.9322 33.628C38.1376 33.8427 38.4269 33.95 38.8002 33.95C39.2109 33.95 39.5609 33.8333 39.8502 33.6L40.2702 34.566ZM44.0231 35.084C43.4164 35.084 42.8331 35.0047 42.2731 34.846C41.7131 34.678 41.2744 34.468 40.9571 34.216L41.5171 33.152C41.8438 33.3853 42.2404 33.572 42.7071 33.712C43.1738 33.852 43.6451 33.922 44.1211 33.922C45.2971 33.922 45.8851 33.586 45.8851 32.914C45.8851 32.69 45.8058 32.5127 45.6471 32.382C45.4884 32.2513 45.2878 32.158 45.0451 32.102C44.8118 32.0367 44.4758 31.9667 44.0371 31.892C43.4398 31.7987 42.9498 31.6913 42.5671 31.57C42.1938 31.4487 41.8718 31.2433 41.6011 30.954C41.3304 30.6647 41.1951 30.2587 41.1951 29.736C41.1951 29.064 41.4751 28.5273 42.0351 28.126C42.5951 27.7153 43.3464 27.51 44.2891 27.51C44.7838 27.51 45.2784 27.5707 45.7731 27.692C46.2678 27.8133 46.6738 27.9767 46.9911 28.182L46.4171 29.246C45.8104 28.854 45.0964 28.658 44.2751 28.658C43.7058 28.658 43.2718 28.7513 42.9731 28.938C42.6744 29.1247 42.5251 29.372 42.5251 29.68C42.5251 29.9227 42.6091 30.114 42.7771 30.254C42.9451 30.394 43.1504 30.4967 43.3931 30.562C43.6451 30.6273 43.9951 30.702 44.4431 30.786C45.0404 30.8887 45.5211 31.0007 45.8851 31.122C46.2584 31.234 46.5758 31.43 46.8371 31.71C47.0984 31.99 47.2291 32.382 47.2291 32.886C47.2291 33.558 46.9398 34.0947 46.3611 34.496C45.7918 34.888 45.0124 35.084 44.0231 35.084ZM55.3705 27.51C56.3972 27.51 57.1812 27.762 57.7225 28.266C58.2732 28.77 58.5485 29.5213 58.5485 30.52V35H57.2745V34.02C57.0505 34.3653 56.7285 34.6313 56.3085 34.818C55.8979 34.9953 55.4079 35.084 54.8385 35.084C54.0079 35.084 53.3405 34.8833 52.8365 34.482C52.3419 34.0807 52.0945 33.5533 52.0945 32.9C52.0945 32.2467 52.3325 31.724 52.8085 31.332C53.2845 30.9307 54.0405 30.73 55.0765 30.73H57.2045V30.464C57.2045 29.8853 57.0365 29.442 56.7005 29.134C56.3645 28.826 55.8699 28.672 55.2165 28.672C54.7779 28.672 54.3485 28.7467 53.9285 28.896C53.5085 29.036 53.1539 29.2273 52.8645 29.47L52.3045 28.462C52.6872 28.154 53.1445 27.9207 53.6765 27.762C54.2085 27.594 54.7732 27.51 55.3705 27.51ZM55.0625 34.048C55.5759 34.048 56.0192 33.936 56.3925 33.712C56.7659 33.4787 57.0365 33.152 57.2045 32.732V31.696H55.1325C53.9939 31.696 53.4245 32.0787 53.4245 32.844C53.4245 33.2173 53.5692 33.5113 53.8585 33.726C54.1479 33.9407 54.5492 34.048 55.0625 34.048ZM64.3107 35.084C63.5547 35.084 62.8781 34.9207 62.2807 34.594C61.6927 34.2673 61.2307 33.8193 60.8947 33.25C60.5587 32.6713 60.3907 32.018 60.3907 31.29C60.3907 30.562 60.5587 29.9133 60.8947 29.344C61.2307 28.7653 61.6927 28.3173 62.2807 28C62.8781 27.6733 63.5547 27.51 64.3107 27.51C64.9827 27.51 65.5801 27.6453 66.1027 27.916C66.6347 28.1867 67.0454 28.5787 67.3347 29.092L66.3127 29.75C66.0794 29.3953 65.7901 29.1293 65.4447 28.952C65.0994 28.7747 64.7167 28.686 64.2967 28.686C63.8114 28.686 63.3727 28.7933 62.9807 29.008C62.5981 29.2227 62.2947 29.5307 62.0707 29.932C61.8561 30.324 61.7487 30.7767 61.7487 31.29C61.7487 31.8127 61.8561 32.2747 62.0707 32.676C62.2947 33.068 62.5981 33.3713 62.9807 33.586C63.3727 33.8007 63.8114 33.908 64.2967 33.908C64.7167 33.908 65.0994 33.8193 65.4447 33.642C65.7901 33.4647 66.0794 33.1987 66.3127 32.844L67.3347 33.488C67.0454 34.0013 66.6347 34.398 66.1027 34.678C65.5801 34.9487 64.9827 35.084 64.3107 35.084ZM70.3628 28.826C70.5961 28.3967 70.9414 28.07 71.3988 27.846C71.8561 27.622 72.4114 27.51 73.0648 27.51V28.812C72.9901 28.8027 72.8874 28.798 72.7568 28.798C72.0288 28.798 71.4548 29.0173 71.0348 29.456C70.6241 29.8853 70.4188 30.5013 70.4188 31.304V35H69.0748V27.58H70.3628V28.826ZM77.8309 35.084C77.0936 35.084 76.4309 34.9207 75.8429 34.594C75.2549 34.2673 74.7929 33.8193 74.4569 33.25C74.1302 32.6713 73.9669 32.018 73.9669 31.29C73.9669 30.562 74.1302 29.9133 74.4569 29.344C74.7929 28.7653 75.2549 28.3173 75.8429 28C76.4309 27.6733 77.0936 27.51 77.8309 27.51C78.5682 27.51 79.2262 27.6733 79.8049 28C80.3929 28.3173 80.8502 28.7653 81.1769 29.344C81.5129 29.9133 81.6809 30.562 81.6809 31.29C81.6809 32.018 81.5129 32.6713 81.1769 33.25C80.8502 33.8193 80.3929 34.2673 79.8049 34.594C79.2262 34.9207 78.5682 35.084 77.8309 35.084ZM77.8309 33.908C78.3069 33.908 78.7316 33.8007 79.1049 33.586C79.4876 33.362 79.7862 33.054 80.0009 32.662C80.2156 32.2607 80.3229 31.8033 80.3229 31.29C80.3229 30.7767 80.2156 30.324 80.0009 29.932C79.7862 29.5307 79.4876 29.2227 79.1049 29.008C78.7316 28.7933 78.3069 28.686 77.8309 28.686C77.3549 28.686 76.9256 28.7933 76.5429 29.008C76.1696 29.2227 75.8709 29.5307 75.6469 29.932C75.4322 30.324 75.3249 30.7767 75.3249 31.29C75.3249 31.8033 75.4322 32.2607 75.6469 32.662C75.8709 33.054 76.1696 33.362 76.5429 33.586C76.9256 33.8007 77.3549 33.908 77.8309 33.908ZM85.6676 35.084C85.061 35.084 84.4776 35.0047 83.9176 34.846C83.3576 34.678 82.919 34.468 82.6016 34.216L83.1616 33.152C83.4883 33.3853 83.885 33.572 84.3516 33.712C84.8183 33.852 85.2896 33.922 85.7656 33.922C86.9416 33.922 87.5296 33.586 87.5296 32.914C87.5296 32.69 87.4503 32.5127 87.2916 32.382C87.133 32.2513 86.9323 32.158 86.6896 32.102C86.4563 32.0367 86.1203 31.9667 85.6816 31.892C85.0843 31.7987 84.5943 31.6913 84.2116 31.57C83.8383 31.4487 83.5163 31.2433 83.2456 30.954C82.975 30.6647 82.8396 30.2587 82.8396 29.736C82.8396 29.064 83.1196 28.5273 83.6796 28.126C84.2396 27.7153 84.991 27.51 85.9336 27.51C86.4283 27.51 86.923 27.5707 87.4176 27.692C87.9123 27.8133 88.3183 27.9767 88.6356 28.182L88.0616 29.246C87.455 28.854 86.741 28.658 85.9196 28.658C85.3503 28.658 84.9163 28.7513 84.6176 28.938C84.319 29.1247 84.1696 29.372 84.1696 29.68C84.1696 29.9227 84.2536 30.114 84.4216 30.254C84.5896 30.394 84.795 30.4967 85.0376 30.562C85.2896 30.6273 85.6396 30.702 86.0876 30.786C86.685 30.8887 87.1656 31.0007 87.5296 31.122C87.903 31.234 88.2203 31.43 88.4816 31.71C88.743 31.99 88.8736 32.382 88.8736 32.886C88.8736 33.558 88.5843 34.0947 88.0056 34.496C87.4363 34.888 86.657 35.084 85.6676 35.084ZM92.6813 35.084C92.0746 35.084 91.4913 35.0047 90.9313 34.846C90.3713 34.678 89.9326 34.468 89.6153 34.216L90.1753 33.152C90.502 33.3853 90.8986 33.572 91.3653 33.712C91.832 33.852 92.3033 33.922 92.7793 33.922C93.9553 33.922 94.5433 33.586 94.5433 32.914C94.5433 32.69 94.464 32.5127 94.3053 32.382C94.1466 32.2513 93.946 32.158 93.7033 32.102C93.47 32.0367 93.134 31.9667 92.6953 31.892C92.098 31.7987 91.608 31.6913 91.2253 31.57C90.852 31.4487 90.53 31.2433 90.2593 30.954C89.9886 30.6647 89.8533 30.2587 89.8533 29.736C89.8533 29.064 90.1333 28.5273 90.6933 28.126C91.2533 27.7153 92.0046 27.51 92.9473 27.51C93.442 27.51 93.9366 27.5707 94.4313 27.692C94.926 27.8133 95.332 27.9767 95.6493 28.182L95.0753 29.246C94.4686 28.854 93.7546 28.658 92.9333 28.658C92.364 28.658 91.93 28.7513 91.6313 28.938C91.3326 29.1247 91.1833 29.372 91.1833 29.68C91.1833 29.9227 91.2673 30.114 91.4353 30.254C91.6033 30.394 91.8086 30.4967 92.0513 30.562C92.3033 30.6273 92.6533 30.702 93.1013 30.786C93.6986 30.8887 94.1793 31.0007 94.5433 31.122C94.9166 31.234 95.234 31.43 95.4953 31.71C95.7566 31.99 95.8873 32.382 95.8873 32.886C95.8873 33.558 95.598 34.0947 95.0193 34.496C94.45 34.888 93.6706 35.084 92.6813 35.084ZM105.499 34.566C105.303 34.734 105.06 34.8647 104.771 34.958C104.481 35.042 104.183 35.084 103.875 35.084C103.128 35.084 102.549 34.8833 102.139 34.482C101.728 34.0807 101.523 33.5067 101.523 32.76V28.686H100.263V27.58H101.523V25.956H102.867V27.58H104.995V28.686H102.867V32.704C102.867 33.1053 102.965 33.4133 103.161 33.628C103.366 33.8427 103.655 33.95 104.029 33.95C104.439 33.95 104.789 33.8333 105.079 33.6L105.499 34.566ZM111.086 27.51C112.028 27.51 112.775 27.7853 113.326 28.336C113.886 28.8773 114.166 29.6753 114.166 30.73V35H112.822V30.884C112.822 30.1653 112.649 29.624 112.304 29.26C111.958 28.896 111.464 28.714 110.82 28.714C110.092 28.714 109.518 28.9287 109.098 29.358C108.678 29.778 108.468 30.3847 108.468 31.178V35H107.124V24.612H108.468V28.63C108.748 28.2753 109.112 28 109.56 27.804C110.017 27.608 110.526 27.51 111.086 27.51ZM123.4 31.332C123.4 31.4347 123.391 31.57 123.372 31.738H117.352C117.436 32.3913 117.721 32.9187 118.206 33.32C118.701 33.712 119.312 33.908 120.04 33.908C120.927 33.908 121.641 33.6093 122.182 33.012L122.924 33.88C122.588 34.272 122.168 34.5707 121.664 34.776C121.169 34.9813 120.614 35.084 119.998 35.084C119.214 35.084 118.519 34.9253 117.912 34.608C117.305 34.2813 116.834 33.8287 116.498 33.25C116.171 32.6713 116.008 32.018 116.008 31.29C116.008 30.5713 116.167 29.9227 116.484 29.344C116.811 28.7653 117.254 28.3173 117.814 28C118.383 27.6733 119.023 27.51 119.732 27.51C120.441 27.51 121.071 27.6733 121.622 28C122.182 28.3173 122.616 28.7653 122.924 29.344C123.241 29.9227 123.4 30.5853 123.4 31.332ZM119.732 28.644C119.088 28.644 118.547 28.84 118.108 29.232C117.679 29.624 117.427 30.1373 117.352 30.772H122.112C122.037 30.1467 121.781 29.638 121.342 29.246C120.913 28.8447 120.376 28.644 119.732 28.644ZM140.254 27.58L137.482 35H136.194L134.052 29.372L131.882 35H130.594L127.836 27.58H129.11L131.266 33.488L133.506 27.58H134.64L136.838 33.516L139.05 27.58H140.254ZM144.591 35.084C143.853 35.084 143.191 34.9207 142.603 34.594C142.015 34.2673 141.553 33.8193 141.217 33.25C140.89 32.6713 140.727 32.018 140.727 31.29C140.727 30.562 140.89 29.9133 141.217 29.344C141.553 28.7653 142.015 28.3173 142.603 28C143.191 27.6733 143.853 27.51 144.591 27.51C145.328 27.51 145.986 27.6733 146.565 28C147.153 28.3173 147.61 28.7653 147.937 29.344C148.273 29.9133 148.441 30.562 148.441 31.29C148.441 32.018 148.273 32.6713 147.937 33.25C147.61 33.8193 147.153 34.2673 146.565 34.594C145.986 34.9207 145.328 35.084 144.591 35.084ZM144.591 33.908C145.067 33.908 145.491 33.8007 145.865 33.586C146.247 33.362 146.546 33.054 146.761 32.662C146.975 32.2607 147.083 31.8033 147.083 31.29C147.083 30.7767 146.975 30.324 146.761 29.932C146.546 29.5307 146.247 29.2227 145.865 29.008C145.491 28.7933 145.067 28.686 144.591 28.686C144.115 28.686 143.685 28.7933 143.303 29.008C142.929 29.2227 142.631 29.5307 142.407 29.932C142.192 30.324 142.085 30.7767 142.085 31.29C142.085 31.8033 142.192 32.2607 142.407 32.662C142.631 33.054 142.929 33.362 143.303 33.586C143.685 33.8007 144.115 33.908 144.591 33.908ZM151.587 28.826C151.821 28.3967 152.166 28.07 152.623 27.846C153.081 27.622 153.636 27.51 154.289 27.51V28.812C154.215 28.8027 154.112 28.798 153.981 28.798C153.253 28.798 152.679 29.0173 152.259 29.456C151.849 29.8853 151.643 30.5013 151.643 31.304V35H150.299V27.58H151.587V28.826ZM155.946 24.612H157.29V35H155.946V24.612ZM166.856 24.612V35H165.568V33.824C165.269 34.2347 164.891 34.5473 164.434 34.762C163.977 34.9767 163.473 35.084 162.922 35.084C162.203 35.084 161.559 34.9253 160.99 34.608C160.421 34.2907 159.973 33.8473 159.646 33.278C159.329 32.6993 159.17 32.0367 159.17 31.29C159.17 30.5433 159.329 29.8853 159.646 29.316C159.973 28.7467 160.421 28.3033 160.99 27.986C161.559 27.6687 162.203 27.51 162.922 27.51C163.454 27.51 163.944 27.6127 164.392 27.818C164.84 28.014 165.213 28.308 165.512 28.7V24.612H166.856ZM163.034 33.908C163.501 33.908 163.925 33.8007 164.308 33.586C164.691 33.362 164.989 33.054 165.204 32.662C165.419 32.2607 165.526 31.8033 165.526 31.29C165.526 30.7767 165.419 30.324 165.204 29.932C164.989 29.5307 164.691 29.2227 164.308 29.008C163.925 28.7933 163.501 28.686 163.034 28.686C162.558 28.686 162.129 28.7933 161.746 29.008C161.373 29.2227 161.074 29.5307 160.85 29.932C160.635 30.324 160.528 30.7767 160.528 31.29C160.528 31.8033 160.635 32.2607 160.85 32.662C161.074 33.054 161.373 33.362 161.746 33.586C162.129 33.8007 162.558 33.908 163.034 33.908ZM174.447 28.826C174.68 28.3967 175.025 28.07 175.483 27.846C175.94 27.622 176.495 27.51 177.149 27.51V28.812C177.074 28.8027 176.971 28.798 176.841 28.798C176.113 28.798 175.539 29.0173 175.119 29.456C174.708 29.8853 174.503 30.5013 174.503 31.304V35H173.159V27.58H174.447V28.826ZM185.443 31.332C185.443 31.4347 185.434 31.57 185.415 31.738H179.395C179.479 32.3913 179.764 32.9187 180.249 33.32C180.744 33.712 181.355 33.908 182.083 33.908C182.97 33.908 183.684 33.6093 184.225 33.012L184.967 33.88C184.631 34.272 184.211 34.5707 183.707 34.776C183.212 34.9813 182.657 35.084 182.041 35.084C181.257 35.084 180.562 34.9253 179.955 34.608C179.348 34.2813 178.877 33.8287 178.541 33.25C178.214 32.6713 178.051 32.018 178.051 31.29C178.051 30.5713 178.21 29.9227 178.527 29.344C178.854 28.7653 179.297 28.3173 179.857 28C180.426 27.6733 181.066 27.51 181.775 27.51C182.484 27.51 183.114 27.6733 183.665 28C184.225 28.3173 184.659 28.7653 184.967 29.344C185.284 29.9227 185.443 30.5853 185.443 31.332ZM181.775 28.644C181.131 28.644 180.59 28.84 180.151 29.232C179.722 29.624 179.47 30.1373 179.395 30.772H184.155C184.08 30.1467 183.824 29.638 183.385 29.246C182.956 28.8447 182.419 28.644 181.775 28.644ZM196.591 27.51C197.524 27.51 198.262 27.7807 198.803 28.322C199.354 28.8633 199.629 29.666 199.629 30.73V35H198.285V30.884C198.285 30.1653 198.117 29.624 197.781 29.26C197.454 28.896 196.983 28.714 196.367 28.714C195.686 28.714 195.144 28.9287 194.743 29.358C194.342 29.778 194.141 30.3847 194.141 31.178V35H192.797V30.884C192.797 30.1653 192.629 29.624 192.293 29.26C191.966 28.896 191.495 28.714 190.879 28.714C190.198 28.714 189.656 28.9287 189.255 29.358C188.854 29.778 188.653 30.3847 188.653 31.178V35H187.309V27.58H188.597V28.686C188.868 28.3033 189.222 28.014 189.661 27.818C190.1 27.6127 190.599 27.51 191.159 27.51C191.738 27.51 192.251 27.6267 192.699 27.86C193.147 28.0933 193.492 28.434 193.735 28.882C194.015 28.4527 194.402 28.1167 194.897 27.874C195.401 27.6313 195.966 27.51 196.591 27.51ZM204.804 27.51C205.831 27.51 206.615 27.762 207.156 28.266C207.707 28.77 207.982 29.5213 207.982 30.52V35H206.708V34.02C206.484 34.3653 206.162 34.6313 205.742 34.818C205.331 34.9953 204.841 35.084 204.272 35.084C203.441 35.084 202.774 34.8833 202.27 34.482C201.775 34.0807 201.528 33.5533 201.528 32.9C201.528 32.2467 201.766 31.724 202.242 31.332C202.718 30.9307 203.474 30.73 204.51 30.73H206.638V30.464C206.638 29.8853 206.47 29.442 206.134 29.134C205.798 28.826 205.303 28.672 204.65 28.672C204.211 28.672 203.782 28.7467 203.362 28.896C202.942 29.036 202.587 29.2273 202.298 29.47L201.738 28.462C202.121 28.154 202.578 27.9207 203.11 27.762C203.642 27.594 204.207 27.51 204.804 27.51ZM204.496 34.048C205.009 34.048 205.453 33.936 205.826 33.712C206.199 33.4787 206.47 33.152 206.638 32.732V31.696H204.566C203.427 31.696 202.858 32.0787 202.858 32.844C202.858 33.2173 203.003 33.5113 203.292 33.726C203.581 33.9407 203.983 34.048 204.496 34.048ZM210.469 27.58H211.813V35H210.469V27.58ZM211.141 26.152C210.88 26.152 210.661 26.068 210.483 25.9C210.315 25.732 210.231 25.5267 210.231 25.284C210.231 25.0413 210.315 24.836 210.483 24.668C210.661 24.4907 210.88 24.402 211.141 24.402C211.403 24.402 211.617 24.486 211.785 24.654C211.963 24.8127 212.051 25.0133 212.051 25.256C212.051 25.508 211.963 25.7227 211.785 25.9C211.617 26.068 211.403 26.152 211.141 26.152ZM218.341 27.51C219.284 27.51 220.031 27.7853 220.581 28.336C221.141 28.8773 221.421 29.6753 221.421 30.73V35H220.077V30.884C220.077 30.1653 219.905 29.624 219.559 29.26C219.214 28.896 218.719 28.714 218.075 28.714C217.347 28.714 216.773 28.9287 216.353 29.358C215.933 29.778 215.723 30.3847 215.723 31.178V35H214.379V27.58H215.667V28.7C215.938 28.3173 216.302 28.0233 216.759 27.818C217.226 27.6127 217.753 27.51 218.341 27.51ZM223.909 27.58H225.253V35H223.909V27.58ZM224.581 26.152C224.319 26.152 224.1 26.068 223.923 25.9C223.755 25.732 223.671 25.5267 223.671 25.284C223.671 25.0413 223.755 24.836 223.923 24.668C224.1 24.4907 224.319 24.402 224.581 24.402C224.842 24.402 225.057 24.486 225.225 24.654C225.402 24.8127 225.491 25.0133 225.491 25.256C225.491 25.508 225.402 25.7227 225.225 25.9C225.057 26.068 224.842 26.152 224.581 26.152ZM231.781 27.51C232.724 27.51 233.47 27.7853 234.021 28.336C234.581 28.8773 234.861 29.6753 234.861 30.73V35H233.517V30.884C233.517 30.1653 233.344 29.624 232.999 29.26C232.654 28.896 232.159 28.714 231.515 28.714C230.787 28.714 230.213 28.9287 229.793 29.358C229.373 29.778 229.163 30.3847 229.163 31.178V35H227.819V27.58H229.107V28.7C229.378 28.3173 229.742 28.0233 230.199 27.818C230.666 27.6127 231.193 27.51 231.781 27.51ZM244.487 27.58V33.992C244.487 35.2893 244.165 36.246 243.521 36.862C242.877 37.4873 241.916 37.8 240.637 37.8C239.937 37.8 239.27 37.702 238.635 37.506C238.001 37.3193 237.487 37.0487 237.095 36.694L237.739 35.658C238.085 35.9567 238.509 36.19 239.013 36.358C239.527 36.5353 240.054 36.624 240.595 36.624C241.463 36.624 242.103 36.4187 242.513 36.008C242.933 35.5973 243.143 34.972 243.143 34.132V33.544C242.826 33.9267 242.434 34.216 241.967 34.412C241.51 34.5987 241.011 34.692 240.469 34.692C239.76 34.692 239.116 34.5427 238.537 34.244C237.968 33.936 237.52 33.5113 237.193 32.97C236.867 32.4193 236.703 31.794 236.703 31.094C236.703 30.394 236.867 29.7733 237.193 29.232C237.52 28.6813 237.968 28.2567 238.537 27.958C239.116 27.6593 239.76 27.51 240.469 27.51C241.029 27.51 241.547 27.6127 242.023 27.818C242.509 28.0233 242.905 28.3267 243.213 28.728V27.58H244.487ZM240.623 33.516C241.109 33.516 241.543 33.4133 241.925 33.208C242.317 33.0027 242.621 32.718 242.835 32.354C243.059 31.9807 243.171 31.5607 243.171 31.094C243.171 30.3753 242.933 29.7967 242.457 29.358C241.981 28.91 241.37 28.686 240.623 28.686C239.867 28.686 239.251 28.91 238.775 29.358C238.299 29.7967 238.061 30.3753 238.061 31.094C238.061 31.5607 238.169 31.9807 238.383 32.354C238.607 32.718 238.911 33.0027 239.293 33.208C239.685 33.4133 240.129 33.516 240.623 33.516ZM254.987 34.566C254.791 34.734 254.548 34.8647 254.259 34.958C253.97 35.042 253.671 35.084 253.363 35.084C252.616 35.084 252.038 34.8833 251.627 34.482C251.216 34.0807 251.011 33.5067 251.011 32.76V28.686H249.751V27.58H251.011V25.956H252.355V27.58H254.483V28.686H252.355V32.704C252.355 33.1053 252.453 33.4133 252.649 33.628C252.854 33.8427 253.144 33.95 253.517 33.95C253.928 33.95 254.278 33.8333 254.567 33.6L254.987 34.566ZM259.544 35.084C258.806 35.084 258.144 34.9207 257.556 34.594C256.968 34.2673 256.506 33.8193 256.17 33.25C255.843 32.6713 255.68 32.018 255.68 31.29C255.68 30.562 255.843 29.9133 256.17 29.344C256.506 28.7653 256.968 28.3173 257.556 28C258.144 27.6733 258.806 27.51 259.544 27.51C260.281 27.51 260.939 27.6733 261.518 28C262.106 28.3173 262.563 28.7653 262.89 29.344C263.226 29.9133 263.394 30.562 263.394 31.29C263.394 32.018 263.226 32.6713 262.89 33.25C262.563 33.8193 262.106 34.2673 261.518 34.594C260.939 34.9207 260.281 35.084 259.544 35.084ZM259.544 33.908C260.02 33.908 260.444 33.8007 260.818 33.586C261.2 33.362 261.499 33.054 261.714 32.662C261.928 32.2607 262.036 31.8033 262.036 31.29C262.036 30.7767 261.928 30.324 261.714 29.932C261.499 29.5307 261.2 29.2227 260.818 29.008C260.444 28.7933 260.02 28.686 259.544 28.686C259.068 28.686 258.638 28.7933 258.256 29.008C257.882 29.2227 257.584 29.5307 257.36 29.932C257.145 30.324 257.038 30.7767 257.038 31.29C257.038 31.8033 257.145 32.2607 257.36 32.662C257.584 33.054 257.882 33.362 258.256 33.586C258.638 33.8007 259.068 33.908 259.544 33.908ZM272.19 35.084C271.453 35.084 270.79 34.9207 270.202 34.594C269.614 34.2673 269.152 33.8193 268.816 33.25C268.49 32.6713 268.326 32.018 268.326 31.29C268.326 30.562 268.49 29.9133 268.816 29.344C269.152 28.7653 269.614 28.3173 270.202 28C270.79 27.6733 271.453 27.51 272.19 27.51C272.928 27.51 273.586 27.6733 274.164 28C274.752 28.3173 275.21 28.7653 275.536 29.344C275.872 29.9133 276.04 30.562 276.04 31.29C276.04 32.018 275.872 32.6713 275.536 33.25C275.21 33.8193 274.752 34.2673 274.164 34.594C273.586 34.9207 272.928 35.084 272.19 35.084ZM272.19 33.908C272.666 33.908 273.091 33.8007 273.464 33.586C273.847 33.362 274.146 33.054 274.36 32.662C274.575 32.2607 274.682 31.8033 274.682 31.29C274.682 30.7767 274.575 30.324 274.36 29.932C274.146 29.5307 273.847 29.2227 273.464 29.008C273.091 28.7933 272.666 28.686 272.19 28.686C271.714 28.686 271.285 28.7933 270.902 29.008C270.529 29.2227 270.23 29.5307 270.006 29.932C269.792 30.324 269.684 30.7767 269.684 31.29C269.684 31.8033 269.792 32.2607 270.006 32.662C270.23 33.054 270.529 33.362 270.902 33.586C271.285 33.8007 271.714 33.908 272.19 33.908ZM284.815 27.58V35H283.541V33.88C283.27 34.2627 282.911 34.5613 282.463 34.776C282.024 34.9813 281.544 35.084 281.021 35.084C280.032 35.084 279.252 34.8133 278.683 34.272C278.114 33.7213 277.829 32.914 277.829 31.85V27.58H279.173V31.696C279.173 32.4147 279.346 32.9607 279.691 33.334C280.036 33.698 280.531 33.88 281.175 33.88C281.884 33.88 282.444 33.6653 282.855 33.236C283.266 32.8067 283.471 32.2 283.471 31.416V27.58H284.815ZM288.662 28.826C288.895 28.3967 289.24 28.07 289.698 27.846C290.155 27.622 290.71 27.51 291.364 27.51V28.812C291.289 28.8027 291.186 28.798 291.056 28.798C290.328 28.798 289.754 29.0173 289.334 29.456C288.923 29.8853 288.718 30.5013 288.718 31.304V35H287.374V27.58H288.662V28.826ZM293.301 35.084C293.04 35.084 292.816 34.9953 292.629 34.818C292.442 34.6313 292.349 34.398 292.349 34.118C292.349 33.8473 292.442 33.6233 292.629 33.446C292.816 33.2593 293.04 33.166 293.301 33.166C293.562 33.166 293.782 33.2547 293.959 33.432C294.136 33.6093 294.225 33.838 294.225 34.118C294.225 34.398 294.132 34.6313 293.945 34.818C293.768 34.9953 293.553 35.084 293.301 35.084Z" fill="white"/>
</svg>
